<svg width="19" height="17" viewBox="0 0 19 17" fill="none" xmlns="http://www.w3.org/2000/svg">
<path d="M9.4976 1.0625C7.81062 1.06433 6.1933 1.68059 5.00043 2.77611C3.80755 3.87163 3.13652 5.35695 3.13453 6.90625C3.13251 8.17234 3.58282 9.40407 4.4164 10.4125C4.4164 10.4125 4.58994 10.6223 4.61828 10.6526L9.4976 15.9375L14.3792 10.65C14.4047 10.6218 14.5788 10.4125 14.5788 10.4125L14.5794 10.4109C15.4125 9.40292 15.8626 8.17176 15.8607 6.90625C15.8587 5.35695 15.1876 3.87163 13.9948 2.77611C12.8019 1.68059 11.1846 1.06433 9.4976 1.0625V1.0625ZM9.4976 9.03125C9.03996 9.03125 8.5926 8.90662 8.21209 8.67312C7.83158 8.43962 7.53501 8.10775 7.35988 7.71945C7.18475 7.33116 7.13893 6.90389 7.22821 6.49168C7.31749 6.07947 7.53786 5.70083 7.86146 5.40365C8.18506 5.10646 8.59735 4.90407 9.04619 4.82208C9.49503 4.74009 9.96026 4.78217 10.3831 4.94301C10.8059 5.10384 11.1672 5.37621 11.4215 5.72566C11.6757 6.07512 11.8114 6.48596 11.8114 6.90625C11.8107 7.46962 11.5666 8.00971 11.1329 8.40808C10.6991 8.80644 10.111 9.03055 9.4976 9.03125V9.03125Z" fill="black"/>
</svg>
