<svg width="92" height="16" viewBox="0 0 92 16" fill="none" xmlns="http://www.w3.org/2000/svg">
<g clip-path="url(#clip0_58_56)">
<path d="M4.08423 15.443C3.66393 15.641 3.18701 15.294 3.27194 14.851L4.1757 10.121L0.339618 6.76501C-0.0186195 6.45101 0.167577 5.87701 0.647767 5.81501L5.98104 5.11901L8.35912 0.792012C8.57363 0.402012 9.154 0.402012 9.3685 0.792012L11.7466 5.11901L17.0799 5.81501C17.5601 5.87701 17.7462 6.45101 17.3869 6.76501L13.5519 10.121L14.4557 14.851C14.5406 15.294 14.0637 15.641 13.6434 15.443L8.86218 13.187L4.08314 15.443H4.08423Z" fill="black"/>
</g>
<g clip-path="url(#clip1_58_56)">
<path d="M22.595 15.443C22.1747 15.641 21.6977 15.294 21.7827 14.851L22.6864 10.121L18.8504 6.76501C18.4921 6.45101 18.6783 5.87701 19.1585 5.81501L24.4918 5.11901L26.8699 0.792012C27.0844 0.402012 27.6647 0.402012 27.8792 0.792012L30.2573 5.11901L35.5906 5.81501C36.0708 5.87701 36.257 6.45101 35.8977 6.76501L32.0627 10.121L32.9664 14.851C33.0514 15.294 32.5744 15.641 32.1541 15.443L27.3729 13.187L22.5939 15.443H22.595Z" fill="black"/>
</g>
<g clip-path="url(#clip2_58_56)">
<path d="M41.1057 15.443C40.6854 15.641 40.2085 15.294 40.2934 14.851L41.1972 10.121L37.3611 6.76501C37.0029 6.45101 37.1891 5.87701 37.6693 5.81501L43.0025 5.11901L45.3806 0.792012C45.5951 0.402012 46.1755 0.402012 46.39 0.792012L48.7681 5.11901L54.1013 5.81501C54.5815 5.87701 54.7677 6.45101 54.4084 6.76501L50.5734 10.121L51.4772 14.851C51.5621 15.294 51.0852 15.641 50.6649 15.443L45.8837 13.187L41.1046 15.443H41.1057Z" fill="black"/>
</g>
<g clip-path="url(#clip3_58_56)">
<path d="M59.6165 15.443C59.1962 15.641 58.7192 15.294 58.8042 14.851L59.7079 10.121L55.8718 6.76501C55.5136 6.45101 55.6998 5.87701 56.18 5.81501L61.5133 5.11901L63.8914 0.792012C64.1059 0.402012 64.6862 0.402012 64.9007 0.792012L67.2788 5.11901L72.6121 5.81501C73.0923 5.87701 73.2785 6.45101 72.9191 6.76501L69.0842 10.121L69.9879 14.851C70.0728 15.294 69.5959 15.641 69.1756 15.443L64.3944 13.187L59.6154 15.443H59.6165Z" fill="black"/>
</g>
<g clip-path="url(#clip4_58_56)">
<path d="M80.024 5.119L82.4021 0.792C82.4478 0.704954 82.5192 0.631433 82.6081 0.57981C82.697 0.528186 82.8 0.500533 82.9052 0.5C83.1044 0.5 83.3037 0.597 83.4115 0.792L85.7896 5.119L91.1229 5.815C91.2558 5.83419 91.3775 5.89491 91.4673 5.98691C91.5572 6.07891 91.6097 6.19655 91.6161 6.32C91.6237 6.40219 91.611 6.48489 91.579 6.56194C91.5469 6.63899 91.4963 6.7084 91.431 6.765L87.5949 10.121L88.4987 14.851C88.5836 15.294 88.1067 15.641 87.6864 15.443L82.9052 13.187L78.1261 15.443C78.0761 15.4668 78.0226 15.4837 77.9672 15.493C77.5948 15.553 77.2398 15.239 77.3138 14.851L78.2176 10.121L74.3826 6.765C74.323 6.7132 74.2756 6.65069 74.2434 6.58137C74.2112 6.51204 74.1948 6.43737 74.1953 6.362C74.1954 6.25544 74.2274 6.15095 74.2879 6.06C74.3308 5.99407 74.3893 5.93783 74.459 5.89542C74.5287 5.85302 74.6079 5.82553 74.6908 5.815L80.024 5.119V5.119ZM82.9052 12.027C82.9931 12.0267 83.0797 12.0459 83.1578 12.083L87.1714 13.977L86.4157 10.02C86.3978 9.929 86.4046 9.83536 86.4354 9.74731C86.4661 9.65926 86.5199 9.57949 86.5921 9.515L89.7574 6.745L85.3453 6.169C85.254 6.15633 85.1673 6.12351 85.0928 6.07335C85.0183 6.02319 84.9581 5.95719 84.9174 5.881L82.9063 2.223L82.9052 2.226V12.026V12.027Z" fill="black"/>
</g>
<defs>
<clipPath id="clip0_58_56">
<rect width="17.4219" height="16" fill="white" transform="translate(0.151367)"/>
</clipPath>
<clipPath id="clip1_58_56">
<rect width="17.4219" height="16" fill="white" transform="translate(18.6621)"/>
</clipPath>
<clipPath id="clip2_58_56">
<rect width="17.4219" height="16" fill="white" transform="translate(37.1729)"/>
</clipPath>
<clipPath id="clip3_58_56">
<rect width="17.4219" height="16" fill="white" transform="translate(55.6836)"/>
</clipPath>
<clipPath id="clip4_58_56">
<rect width="17.4219" height="16" fill="white" transform="translate(74.1943)"/>
</clipPath>
</defs>
</svg>
